<svg xmlns="http://www.w3.org/2000/svg" style="display: none;">
  <symbol id="icon-email" viewBox="0 0 24 24">
    <path d="M4 4h16a2 2 0 0 1 2 2v12a2 2 0 0 1-2 2H4a2 2 0 0 1-2-2V6a2 2 0 0 1 2-2z" fill="none" stroke="currentColor" stroke-width="1.8" stroke-linecap="round" stroke-linejoin="round"></path>
    <polyline points="22 6 12 13 2 6" fill="none" stroke="currentColor" stroke-width="1.8" stroke-linecap="round" stroke-linejoin="round"></polyline>
  </symbol>
  <symbol id="icon-doc" viewBox="0 0 24 24">
    <path d="M14 2H6a2 2 0 0 0-2 2v16a2 2 0 0 0 2 2h12a2 2 0 0 0 2-2V8z" fill="none" stroke="currentColor" stroke-width="1.8" stroke-linecap="round" stroke-linejoin="round"></path>
    <polyline points="14 2 14 8 20 8" fill="none" stroke="currentColor" stroke-width="1.8" stroke-linecap="round" stroke-linejoin="round"></polyline>
    <line x1="16" y1="13" x2="8" y2="13" stroke="currentColor" stroke-width="1.8" stroke-linecap="round"></line>
    <line x1="16" y1="17" x2="8" y2="17" stroke="currentColor" stroke-width="1.8" stroke-linecap="round"></line>
    <line x1="10" y1="9" x2="8" y2="9" stroke="currentColor" stroke-width="1.8" stroke-linecap="round"></line>
  </symbol>
  <symbol id="icon-cap" viewBox="0 0 24 24">
    <path d="M22 10v6" fill="none" stroke="currentColor" stroke-width="1.8" stroke-linecap="round" stroke-linejoin="round"></path>
    <path d="M2 10l10 5 10-5-10-5-10 5z" fill="none" stroke="currentColor" stroke-width="1.8" stroke-linecap="round" stroke-linejoin="round"></path>
    <path d="M6 12v5c0 1 4 3 6 3s6-2 6-3v-5" fill="none" stroke="currentColor" stroke-width="1.8" stroke-linecap="round" stroke-linejoin="round"></path>
  </symbol>
  <symbol id="icon-linkedin" viewBox="0 0 24 24">
    <path d="M20.447 20.452h-3.554v-5.569c0-1.328-.027-3.037-1.852-3.037-1.853 0-2.136 1.445-2.136 2.939v5.667H9.349V9h3.414v1.561h.046c.477-.9 1.637-1.852 3.37-1.852 3.601 0 4.268 2.37 4.268 5.455v6.288zM5.337 7.433c-1.144 0-2.067-.926-2.067-2.065 0-1.138.923-2.064 2.067-2.064 1.14 0 2.064.926 2.064 2.064 0 1.139-.924 2.065-2.064 2.065zm1.777 13.019H3.56V9h3.554v11.452zM22.225 0H1.771C.792 0 0 .774 0 1.729v20.542C0 23.227.792 24 1.771 24h20.451C23.2 24 24 23.227 24 22.271V1.729C24 .774 23.2 0 22.222 0h.003z" fill="currentColor"></path>
  </symbol>
  <symbol id="icon-github" viewBox="0 0 24 24">
    <path d="M12 .5C5.73.5.5 5.74.5 12.02c0 5.1 3.29 9.43 7.86 10.96.58.11.79-.25.79-.56 0-.28-.01-1.02-.02-2-3.2.7-3.88-1.54-3.88-1.54-.53-1.36-1.28-1.72-1.28-1.72-1.04-.72.08-.7.08-.7 1.15.08 1.75 1.18 1.75 1.18 1.02 1.75 2.68 1.24 3.33.95.1-.74.4-1.24.73-1.52-2.55-.29-5.23-1.28-5.23-5.7 0-1.26.45-2.3 1.18-3.11-.12-.29-.51-1.46.11-3.05 0 0 .97-.31 3.18 1.19a10.9 10.9 0 0 1 2.9-.39c.98 0 1.97.13 2.9.39 2.2-1.5 3.18-1.19 3.18-1.19.62 1.59.23 2.76.11 3.05.73.81 1.18 1.85 1.18 3.11 0 4.43-2.69 5.4-5.25 5.69.41.36.77 1.07.77 2.15 0 1.55-.01 2.79-.01 3.17 0 .31.21.68.8.56 4.56-1.53 7.84-5.86 7.84-10.96C23.5 5.74 18.27.5 12 .5z" fill="currentColor"></path>
  </symbol>
  <symbol id="icon-link" viewBox="0 0 24 24">
    <path d="M10 13a5 5 0 0 0 7.07 0l1.41-1.41a5 5 0 0 0-7.07-7.07L9 6" fill="none" stroke="currentColor" stroke-width="1.8" stroke-linecap="round" stroke-linejoin="round"></path>
    <path d="M14 11a5 5 0 0 0-7.07 0L5.52 12.41a5 5 0 0 0 7.07 7.07L15 18" fill="none" stroke="currentColor" stroke-width="1.8" stroke-linecap="round" stroke-linejoin="round"></path>
  </symbol>
  <symbol id="icon-code" viewBox="0 0 24 24">
    <polyline points="16 18 22 12 16 6" fill="none" stroke="currentColor" stroke-width="1.8" stroke-linecap="round" stroke-linejoin="round"></polyline>
    <polyline points="8 6 2 12 8 18" fill="none" stroke="currentColor" stroke-width="1.8" stroke-linecap="round" stroke-linejoin="round"></polyline>
  </symbol>
  <symbol id="icon-dataset" viewBox="0 0 24 24">
    <ellipse cx="12" cy="5" rx="9" ry="3" fill="none" stroke="currentColor" stroke-width="1.8"></ellipse>
    <path d="M3 5v7c0 1.66 4.03 3 9 3s9-1.34 9-3V5" fill="none" stroke="currentColor" stroke-width="1.8"></path>
    <path d="M3 12v7c0 1.66 4.03 3 9 3s9-1.34 9-3v-7" fill="none" stroke="currentColor" stroke-width="1.8"></path>
  </symbol>
  <symbol id="icon-doc-lines" viewBox="0 0 24 24">
    <path d="M14 2H6a2 2 0 0 0-2 2v16a2 2 0 0 0 2 2h12a2 2 0 0 0 2-2V8z" fill="none" stroke="currentColor" stroke-width="1.8" stroke-linecap="round" stroke-linejoin="round"></path>
    <polyline points="14 2 14 8 20 8" fill="none" stroke="currentColor" stroke-width="1.8" stroke-linecap="round" stroke-linejoin="round"></polyline>
    <line x1="8" y1="13" x2="16" y2="13" stroke="currentColor" stroke-width="1.8" stroke-linecap="round"></line>
    <line x1="8" y1="17" x2="14" y2="17" stroke="currentColor" stroke-width="1.8" stroke-linecap="round"></line>
  </symbol>
  <symbol id="icon-book" viewBox="0 0 24 24">
    <path d="M4 19.5A2.5 2.5 0 0 1 6.5 17H20" fill="none" stroke="currentColor" stroke-width="1.8" stroke-linecap="round" stroke-linejoin="round"></path>
    <path d="M4 4v15.5A2.5 2.5 0 0 1 6.5 17H20V4H6.5A2.5 2.5 0 0 0 4 6.5" fill="none" stroke="currentColor" stroke-width="1.8" stroke-linecap="round" stroke-linejoin="round"></path>
  </symbol>
  <symbol id="icon-slides" viewBox="0 0 24 24">
    <rect x="3" y="4" width="18" height="14" rx="2" ry="2" fill="none" stroke="currentColor" stroke-width="1.8"></rect>
    <line x1="8" y1="20" x2="16" y2="20" stroke="currentColor" stroke-width="1.8" stroke-linecap="round"></line>
    <line x1="12" y1="16" x2="12" y2="20" stroke="currentColor" stroke-width="1.8" stroke-linecap="round"></line>
  </symbol>
  <symbol id="icon-demo" viewBox="0 0 24 24">
    <rect x="3" y="4" width="18" height="14" rx="2" ry="2" fill="none" stroke="currentColor" stroke-width="1.8"></rect>
    <line x1="8" y1="20" x2="16" y2="20" stroke="currentColor" stroke-width="1.8" stroke-linecap="round"></line>
    <line x1="12" y1="16" x2="12" y2="20" stroke="currentColor" stroke-width="1.8" stroke-linecap="round"></line>
    <polygon points="11 9 16 12 11 15 11 9" fill="currentColor"></polygon>
  </symbol>
</svg>
